<?xml version="1.0" encoding="utf-8"?>
<!-- Generator: Adobe Illustrator 22.0.1, SVG Export Plug-In . SVG Version: 6.00 Build 0)  -->
<svg version="1.1" id="Layer_1" xmlns="http://www.w3.org/2000/svg" xmlns:xlink="http://www.w3.org/1999/xlink" x="0px" y="0px"
	 viewBox="0 0 40 40" style="enable-background:new 0 0 40 40;" xml:space="preserve">
<style type="text/css">
	.st0{fill:#FBC736;}
	.st1{fill:#8FA0B0;}
	.st2{fill:#AFBFCF;}
	.st3{fill:url(#SVGID_1_);stroke:#C1C1C1;stroke-miterlimit:10;}
	.st4{fill:url(#SVGID_2_);}
	.st5{fill:url(#SVGID_3_);}
	.st6{fill:#E6E6E6;}
	.st7{fill:url(#SVGID_4_);}
	.st8{fill:url(#SVGID_5_);}
</style>
<g>
	<rect x="4" y="5.4" class="st0" width="32.7" height="0.5"/>
	<path class="st1" d="M37,4.7H3.7c-0.1,0-0.1-0.1-0.1-0.1c0-0.1,0.1-0.1,0.1-0.1H37c0.1,0,0.1,0.1,0.1,0.1C37.1,4.6,37.1,4.7,37,4.7
		z"/>
	<path class="st1" d="M37,5.4H3.7c-0.1,0-0.1-0.1-0.1-0.1c0-0.1,0.1-0.1,0.1-0.1H37c0.1,0,0.1,0.1,0.1,0.1C37.1,5.3,37.1,5.4,37,5.4
		z"/>
	<path class="st1" d="M3.9,6C3.8,6,3.7,5.9,3.7,5.8V3.9c0-0.1,0.1-0.1,0.1-0.1C3.9,3.8,4,3.9,4,3.9v1.9C4,5.9,3.9,6,3.9,6z"/>
	<path class="st1" d="M9.3,6C9.3,6,9.2,5.9,9.2,5.8V3.9c0-0.1,0.1-0.1,0.1-0.1c0.1,0,0.1,0.1,0.1,0.1v1.9C9.4,5.9,9.4,6,9.3,6z"/>
	<path class="st1" d="M14.8,6c-0.1,0-0.1-0.1-0.1-0.1V3.9c0-0.1,0.1-0.1,0.1-0.1c0.1,0,0.1,0.1,0.1,0.1v1.9C14.9,5.9,14.9,6,14.8,6z
		"/>
	<path class="st1" d="M20.3,6c-0.1,0-0.1-0.1-0.1-0.1V3.9c0-0.1,0.1-0.1,0.1-0.1c0.1,0,0.1,0.1,0.1,0.1v1.9C20.4,5.9,20.3,6,20.3,6z
		"/>
	<path class="st1" d="M25.7,6c-0.1,0-0.1-0.1-0.1-0.1V3.9c0-0.1,0.1-0.1,0.1-0.1s0.1,0.1,0.1,0.1v1.9C25.8,5.9,25.8,6,25.7,6z"/>
	<path class="st1" d="M31.2,6c-0.1,0-0.1-0.1-0.1-0.1V3.9c0-0.1,0.1-0.1,0.1-0.1c0.1,0,0.1,0.1,0.1,0.1v1.9C31.3,5.9,31.3,6,31.2,6z
		"/>
	<path class="st1" d="M36.7,6c-0.1,0-0.1-0.1-0.1-0.1V3.9c0-0.1,0.1-0.1,0.1-0.1c0.1,0,0.1,0.1,0.1,0.1v1.9C36.8,5.9,36.7,6,36.7,6z
		"/>
	<path class="st2" d="M37,4.2H3.7c-0.1,0-0.2-0.1-0.2-0.2c0-0.1,0.1-0.2,0.2-0.2H37c0.1,0,0.2,0.1,0.2,0.2C37.2,4.1,37.1,4.2,37,4.2
		z"/>
	
		<linearGradient id="SVGID_1_" gradientUnits="userSpaceOnUse" x1="-7962.3149" y1="7537.4229" x2="-7929.0112" y2="7537.4229" gradientTransform="matrix(1 0 0 1 7966 -7516)">
		<stop  offset="0" style="stop-color:#E6E6E6"/>
		<stop  offset="0.1711" style="stop-color:#E5EEF7"/>
		<stop  offset="0.3743" style="stop-color:#CCCCCC"/>
		<stop  offset="1" style="stop-color:#808080"/>
	</linearGradient>
	<path class="st3" d="M37,7.1H3.7v25.5c0,1.7,1.4,3.1,3.1,3.1h27.1c1.7,0,3.1-1.4,3.1-3.1V7.1z"/>
	<g>
		
			<linearGradient id="SVGID_2_" gradientUnits="userSpaceOnUse" x1="-7963.1597" y1="-162835.5938" x2="-7928.1665" y2="-162835.5938" gradientTransform="matrix(1 0 0 -4.530000e-02 7966 -7369.9673)">
			<stop  offset="0" style="stop-color:#BDCEDE"/>
			<stop  offset="0.1711" style="stop-color:#E5EEF7"/>
			<stop  offset="0.3743" style="stop-color:#BCCCDB"/>
			<stop  offset="1" style="stop-color:#4B5E70"/>
		</linearGradient>
		<rect x="2.8" y="5.8" class="st4" width="35" height="1.3"/>
		
			<linearGradient id="SVGID_3_" gradientUnits="userSpaceOnUse" x1="-7963.1597" y1="7521.9897" x2="-7928.1665" y2="7521.9897" gradientTransform="matrix(1 0 0 1 7966 -7516)">
			<stop  offset="0.1711" style="stop-color:#E5EEF7"/>
			<stop  offset="1" style="stop-color:#A9B6C4"/>
		</linearGradient>
		<rect x="2.8" y="5.8" class="st5" width="35" height="0.3"/>
		<rect x="3.7" y="7.1" class="st6" width="33.3" height="0.6"/>
	</g>
	<g>
		
			<linearGradient id="SVGID_4_" gradientUnits="userSpaceOnUse" x1="-7963.1597" y1="-162890.4531" x2="-7928.1665" y2="-162890.4531" gradientTransform="matrix(1 0 0 -4.530000e-02 7966 -7369.9673)">
			<stop  offset="0" style="stop-color:#BDCEDE"/>
			<stop  offset="0.1711" style="stop-color:#E5EEF7"/>
			<stop  offset="0.3743" style="stop-color:#BCCCDB"/>
			<stop  offset="1" style="stop-color:#4B5E70"/>
		</linearGradient>
		<rect x="2.8" y="8.3" class="st7" width="35" height="1.3"/>
		
			<linearGradient id="SVGID_5_" gradientUnits="userSpaceOnUse" x1="-7963.1597" y1="7524.4746" x2="-7928.1665" y2="7524.4746" gradientTransform="matrix(1 0 0 1 7966 -7516)">
			<stop  offset="0.1711" style="stop-color:#E5EEF7"/>
			<stop  offset="1" style="stop-color:#A9B6C4"/>
		</linearGradient>
		<rect x="2.8" y="8.3" class="st8" width="35" height="0.3"/>
		<rect x="3.7" y="9.6" class="st6" width="33.3" height="0.6"/>
	</g>
</g>
</svg>
